# xmcd
# 
# Track frame offsets:
#     150
#     22806
#     41976
#     62942
#     83438
#     107536
#     126621
#     134268
#     156953
#     178419
#     194040
#     215946
#     234201
#     251215
# 
# Disc length: 3613
# 
# Revision: 2
# Processed by: cddbd v1.5.2PL0 Copyright (c) Steve Scherf et al.
# Submitted via: BonkEnc v1.0.8
# 
DISCID=d40e1b0e
DTITLE=Blue Shaddy - Walk a Mile
DYEAR=2005
DGENRE=Blues
TTITLE0=Howling Dog
TTITLE1=Dont wanna die here
TTITLE2=Steal my life back
TTITLE3=Long way down
TTITLE4=Its gonna be alright
TTITLE5=Walk a mile
TTITLE6=Wagtall
TTITLE7=Jungle Juice
TTITLE8=Lost
TTITLE9=People Talk
TTITLE10=Forget that
TTITLE11=Thumper
TTITLE12=Hold on to her Love
TTITLE13=I Wish my life was clear
EXTD=
EXTT0=
EXTT1=
EXTT2=
EXTT3=
EXTT4=
EXTT5=
EXTT6=
EXTT7=
EXTT8=
EXTT9=
EXTT10=
EXTT11=
EXTT12=
EXTT13=
PLAYORDER=
